<?xml version="1.0" standalone="no"?>
<!DOCTYPE svg PUBLIC "-//W3C//DTD SVG 20010904//EN"
 "http://www.w3.org/TR/2001/REC-SVG-20010904/DTD/svg10.dtd">
<svg version="1.0" xmlns="http://www.w3.org/2000/svg"
 width="700.000000pt" height="700.000000pt" viewBox="0 0 700.000000 700.000000"
 preserveAspectRatio="xMidYMid meet">
<metadata>
Created by potrace 1.14, written by Peter Selinger 2001-2017
</metadata>
<g transform="translate(0.000000,700.000000) scale(0.100000,-0.100000)"
fill="#000000" stroke="none">
<path d="M3485 6991 c-6 -5 -35 -22 -65 -39 -30 -16 -171 -96 -313 -176 -142
-80 -260 -146 -263 -146 -3 0 -17 -8 -32 -19 -22 -15 -279 -161 -477 -271 -22
-12 -69 -39 -105 -60 -36 -20 -85 -49 -110 -62 -25 -14 -214 -121 -420 -238
-206 -117 -415 -235 -464 -262 -49 -27 -105 -60 -125 -72 -20 -12 -43 -25 -51
-29 -8 -3 -157 -86 -330 -185 l-315 -178 0 -1754 c0 -1548 2 -1754 15 -1761 8
-5 55 -31 103 -59 49 -27 90 -50 92 -50 2 0 39 -21 82 -46 43 -26 101 -59 128
-74 28 -15 79 -45 115 -65 36 -21 90 -51 120 -68 30 -17 69 -39 85 -49 17 -10
37 -21 45 -25 8 -4 48 -26 88 -50 41 -24 75 -43 76 -43 2 0 64 -34 137 -76
211 -120 578 -328 643 -364 33 -18 98 -55 145 -82 48 -28 115 -66 151 -85 36
-20 70 -39 75 -43 6 -4 35 -21 65 -37 30 -17 172 -97 315 -178 143 -81 332
-188 420 -237 88 -50 165 -94 171 -99 6 -5 102 43 249 126 131 74 240 135 242
135 2 0 20 11 41 24 20 13 147 85 282 161 135 76 344 195 465 263 121 69 245
139 275 155 30 16 60 33 65 37 6 4 37 22 70 40 74 41 109 60 205 115 41 23 91
51 110 62 19 11 75 43 124 72 49 28 90 51 92 51 2 0 53 29 115 65 61 36 113
65 115 65 3 0 21 10 42 23 20 13 64 38 97 56 33 18 124 70 203 115 79 44 171
96 205 115 34 18 72 39 85 47 l22 14 -2 1752 -3 1752 -210 119 c-115 65 -232
131 -260 146 -27 16 -131 75 -230 131 -99 57 -205 116 -235 132 -30 16 -59 33
-65 37 -5 5 -37 23 -70 41 -80 44 -503 282 -585 330 -36 21 -87 50 -115 66
-38 21 -555 313 -914 516 -20 12 -56 32 -81 46 -25 14 -85 48 -135 76 -49 29
-97 55 -105 59 -8 4 -28 16 -45 26 -35 23 -38 24 -50 12z"/>
</g>
</svg>
