<svg width="29" height="28" viewBox="0 0 29 28" fill="none" xmlns="http://www.w3.org/2000/svg">
<path d="M6.43796 23.9529L5.49974 24.6179L5.49975 24.6179L6.43796 23.9529ZM7.97678 25.0521L8.55178 24.0562H8.55177L7.97678 25.0521ZM6.07145 22.8813L4.92248 22.9302V22.9302L6.07145 22.8813ZM6.61472 21.07L7.67921 21.5051L7.67921 21.5051L6.61472 21.07ZM6.71222 20.8315L5.64773 20.3963H5.64773L6.71222 20.8315ZM6.49321 18.7982L7.47909 18.2062L7.47909 18.2062L6.49321 18.7982ZM6.33984 18.5331L7.34465 17.9737L7.34464 17.9737L6.33984 18.5331ZM4.68877 17.3287L4.84415 16.1892H4.84415L4.68877 17.3287ZM4.43463 17.294L4.59001 16.1546C4.53851 16.1475 4.4866 16.144 4.43463 16.144V17.294ZM4.43462 17.294L4.27924 18.4335C4.33073 18.4405 4.38265 18.444 4.43462 18.444V17.294ZM2.59429 16.8588L1.97748 17.8294L1.97749 17.8294L2.59429 16.8588ZM1.84954 16.0056L2.89458 15.5256L2.89458 15.5256L1.84954 16.0056ZM1.84955 11.9943L2.89458 12.4743H2.89458L1.84955 11.9943ZM2.59429 11.1411L3.21109 12.1117L3.21109 12.1117L2.59429 11.1411ZM4.43463 10.7059L4.59001 11.8453H4.59001L4.43463 10.7059ZM4.68876 10.6712L4.84414 11.8107H4.84414L4.68876 10.6712ZM6.33984 9.46681L5.33504 8.90745L5.33504 8.90746L6.33984 9.46681ZM6.49321 9.20165L7.47909 9.79372L7.47909 9.79372L6.49321 9.20165ZM6.71222 7.1684L7.7767 6.73323L7.7767 6.73323L6.71222 7.1684ZM6.61472 6.92992L5.55024 7.36508L5.55024 7.36508L6.61472 6.92992ZM6.07144 5.11853L4.92248 5.06966V5.06966L6.07144 5.11853ZM6.43796 4.04697L7.37617 4.71199L7.37618 4.71199L6.43796 4.04697ZM7.97677 2.94774L7.40177 1.95181V1.95181L7.97677 2.94774ZM8.19053 2.82433L8.76553 3.82026H8.76553L8.19053 2.82433ZM9.9119 2.04129L10.0187 3.18632L9.9119 2.04129ZM11.0232 2.25966L11.5553 1.24019V1.24019L11.0232 2.25966ZM12.3202 3.63584L13.2293 2.93155L13.2293 2.93155L12.3202 3.63584ZM12.479 3.84077L11.5699 4.54506V4.54507L12.479 3.84077ZM14.3455 4.66787L14.3642 5.81771H14.3642L14.3455 4.66787ZM14.6551 4.66787L14.6738 3.51802L14.6738 3.51802L14.6551 4.66787ZM16.5215 3.84077L17.4306 4.54506L17.4306 4.54506L16.5215 3.84077ZM16.6804 3.63568L15.7713 2.93138L15.7713 2.93139L16.6804 3.63568ZM17.9775 2.25949L17.4453 1.24002L17.4453 1.24002L17.9775 2.25949ZM19.0887 2.04112L19.1956 0.89609L19.0887 2.04112ZM20.8101 2.82416L21.3851 1.82823L21.3851 1.82823L20.8101 2.82416ZM21.0239 2.94757L20.4489 3.9435V3.9435L21.0239 2.94757ZM22.5627 4.0468L23.5009 3.38178L23.5009 3.38178L22.5627 4.0468ZM22.9292 5.11836L24.0782 5.06949L24.0782 5.06949L22.9292 5.11836ZM22.3859 6.92974L21.3214 6.49458V6.49458L22.3859 6.92974ZM22.2884 7.16832L23.3529 7.60348V7.60348L22.2884 7.16832ZM22.5074 9.20159L23.4933 8.60952V8.60952L22.5074 9.20159ZM22.6608 9.46681L23.6656 8.90746V8.90745L22.6608 9.46681ZM24.3119 10.6712L24.4673 9.53177H24.4673L24.3119 10.6712ZM24.566 10.7059L24.4106 11.8453H24.4106L24.566 10.7059ZM26.4064 11.1411L25.7896 12.1117H25.7896L26.4064 11.1411ZM27.1511 11.9943L28.1961 11.5143L27.1511 11.9943ZM27.1511 16.0056L28.1961 16.4856V16.4856L27.1511 16.0056ZM26.4064 16.8588L27.0232 17.8294L27.0232 17.8294L26.4064 16.8588ZM24.566 17.294L24.4107 16.1546C24.3994 16.1561 24.3882 16.1578 24.377 16.1597L24.566 17.294ZM24.566 17.294L24.7214 18.4335C24.7327 18.4319 24.7439 18.4302 24.7551 18.4284L24.566 17.294ZM24.3119 17.3287L24.1565 16.1892H24.1565L24.3119 17.3287ZM22.6608 18.5331L21.656 17.9737L22.6608 18.5331ZM22.5074 18.7983L23.4933 19.3904L23.4933 19.3903L22.5074 18.7983ZM22.2884 20.8316L23.3529 20.3964V20.3964L22.2884 20.8316ZM22.3859 21.0701L21.3214 21.5053L21.3214 21.5053L22.3859 21.0701ZM22.9292 22.8815L21.7802 22.8326L21.7802 22.8327L22.9292 22.8815ZM22.5627 23.9531L21.6245 23.2881V23.2881L22.5627 23.9531ZM21.0239 25.0523L21.5989 26.0482L21.5989 26.0482L21.0239 25.0523ZM20.8101 25.1757L21.3244 26.2043C21.345 26.194 21.3652 26.1831 21.3851 26.1717L20.8101 25.1757ZM20.8101 25.1757L20.2958 24.1471C20.2752 24.1574 20.255 24.1683 20.2351 24.1798L20.8101 25.1757ZM19.0887 25.9588L18.9819 24.8137H18.9819L19.0887 25.9588ZM17.9775 25.7404L18.5096 24.7209L18.5096 24.7209L17.9775 25.7404ZM16.6804 24.3642L15.7713 25.0685V25.0685L16.6804 24.3642ZM16.5215 24.1591L17.4306 23.4548L17.4306 23.4548L16.5215 24.1591ZM14.6551 23.332L14.6364 22.1822L14.6364 22.1822L14.6551 23.332ZM14.3455 23.332L14.3267 24.4819L14.3268 24.4819L14.3455 23.332ZM12.479 24.1591L13.3881 24.8634H13.3881L12.479 24.1591ZM12.3202 24.364L13.2293 25.0683L13.2293 25.0683L12.3202 24.364ZM11.0232 25.7402L10.491 24.7208L10.491 24.7208L11.0232 25.7402ZM9.9119 25.9586L10.0187 24.8136H10.0187L9.9119 25.9586ZM8.19054 25.1756L8.76554 24.1796L8.76554 24.1796L8.19054 25.1756ZM5.49975 24.6179C5.73614 24.9514 6.02851 25.1925 6.33117 25.3997C6.62196 25.5988 6.98839 25.8094 7.40178 26.0481L8.55177 24.0562C8.1079 23.7999 7.83138 23.6394 7.6303 23.5017C7.4411 23.3722 7.3927 23.3112 7.37617 23.2879L5.49975 24.6179ZM4.92248 22.9302C4.94828 23.5367 5.14874 24.1227 5.49974 24.6179L7.37618 23.2879C7.28146 23.1543 7.22737 22.9961 7.22041 22.8325L4.92248 22.9302ZM5.55024 20.6348C5.36961 21.0766 5.20895 21.4676 5.10097 21.803C4.98858 22.1521 4.90511 22.5218 4.92248 22.9302L7.22041 22.8325C7.21919 22.8039 7.22007 22.726 7.29033 22.5078C7.36499 22.2758 7.48526 21.9796 7.67921 21.5051L5.55024 20.6348ZM5.64773 20.3963L5.55024 20.6348L7.67921 21.5051L7.7767 21.2666L5.64773 20.3963ZM5.50733 19.3903C5.7323 19.7649 5.75458 20.1349 5.64773 20.3963L7.7767 21.2666C8.21385 20.1973 7.99426 19.064 7.47909 18.2062L5.50733 19.3903ZM5.33504 19.0924C5.39089 19.1928 5.44833 19.2921 5.50733 19.3903L7.47909 18.2062C7.43304 18.1295 7.38822 18.052 7.34465 17.9737L5.33504 19.0924ZM4.53339 18.4681C4.81293 18.5062 5.12234 18.7103 5.33505 19.0924L7.34464 17.9737C6.8587 17.1008 5.9878 16.3452 4.84415 16.1892L4.53339 18.4681ZM4.27925 18.4335L4.53339 18.4681L4.84415 16.1892L4.59001 16.1546L4.27925 18.4335ZM4.43462 18.444H4.43463V16.144H4.43462V18.444ZM1.97749 17.8294C2.32249 18.0487 2.68437 18.1612 3.04291 18.2384C3.38739 18.3127 3.80628 18.369 4.27924 18.4335L4.59 16.1546C4.08216 16.0853 3.76545 16.0413 3.52725 15.99C3.3031 15.9417 3.23521 15.9036 3.21109 15.8882L1.97749 17.8294ZM0.804512 16.4856C1.05787 17.0372 1.46519 17.5039 1.97748 17.8294L3.21109 15.8882C3.07286 15.8004 2.96294 15.6745 2.89458 15.5256L0.804512 16.4856ZM0.516992 14.1234C0.516992 14.6007 0.516206 15.0234 0.543187 15.3747C0.571269 15.7404 0.633888 16.1142 0.804513 16.4856L2.89458 15.5256C2.88265 15.4997 2.85399 15.4272 2.83644 15.1986C2.81778 14.9557 2.81699 14.6359 2.81699 14.1234H0.516992ZM0.516992 13.8765V14.1234H2.81699V13.8765H0.516992ZM0.804513 11.5143C0.633888 11.8857 0.57127 12.2595 0.543187 12.6252C0.516206 12.9765 0.516992 13.3992 0.516992 13.8765H2.81699C2.81699 13.364 2.81778 13.0442 2.83644 12.8013C2.85399 12.5727 2.88265 12.5002 2.89458 12.4743L0.804513 11.5143ZM1.97749 10.1705C1.46519 10.496 1.05787 10.9627 0.804513 11.5143L2.89458 12.4743C2.96294 12.3254 3.07286 12.1995 3.21109 12.1117L1.97749 10.1705ZM4.27925 9.56642C3.80629 9.63092 3.38739 9.68724 3.04291 9.76145C2.68437 9.83868 2.32249 9.95123 1.97748 10.1705L3.21109 12.1117C3.23521 12.0963 3.3031 12.0582 3.52725 12.0099C3.76545 11.9586 4.08216 11.9146 4.59001 11.8453L4.27925 9.56642ZM4.53338 9.53177L4.27925 9.56642L4.59001 11.8453L4.84414 11.8107L4.53338 9.53177ZM5.33504 8.90746C5.12233 9.28955 4.81293 9.49365 4.53338 9.53177L4.84414 11.8107C5.9878 11.6547 6.8587 10.8991 7.34464 10.0262L5.33504 8.90746ZM5.50733 8.60959C5.44833 8.70784 5.39089 8.80714 5.33504 8.90745L7.34463 10.0262C7.38821 9.9479 7.43304 9.8704 7.47909 9.79372L5.50733 8.60959ZM5.64773 7.60356C5.75458 7.86494 5.7323 8.23497 5.50733 8.60959L7.47909 9.79372C7.99426 8.93588 8.21385 7.80258 7.7767 6.73323L5.64773 7.60356ZM5.55024 7.36508L5.64773 7.60356L7.7767 6.73323L7.67921 6.49475L5.55024 7.36508ZM4.92248 5.06966C4.90511 5.47807 4.98858 5.84774 5.10097 6.19686C5.20895 6.5323 5.36961 6.92324 5.55024 7.36508L7.67921 6.49475C7.48526 6.02032 7.36499 5.72404 7.29033 5.4921C7.22007 5.27384 7.21919 5.19596 7.22041 5.1674L4.92248 5.06966ZM5.49974 3.38195C5.14874 3.87715 4.94828 4.46322 4.92248 5.06966L7.22041 5.1674C7.22737 5.00376 7.28146 4.84562 7.37617 4.71199L5.49974 3.38195ZM7.40177 1.95181C6.98839 2.19048 6.62196 2.40113 6.33117 2.60017C6.02851 2.80734 5.73613 3.04845 5.49974 3.38195L7.37618 4.71199C7.3927 4.68868 7.44109 4.62764 7.6303 4.49813C7.83138 4.3605 8.10789 4.19994 8.55177 3.94367L7.40177 1.95181ZM7.61553 1.8284L7.40177 1.95181L8.55177 3.94367L8.76553 3.82026L7.61553 1.8284ZM9.80509 0.89626C9.39807 0.934229 9.04307 1.06688 8.71234 1.22541C8.39457 1.37772 8.02892 1.58973 7.61553 1.8284L8.76553 3.82026C9.20941 3.56398 9.48672 3.40479 9.70645 3.29947C9.91321 3.20037 9.99026 3.18897 10.0187 3.18632L9.80509 0.89626ZM11.5553 1.24019C11.0172 0.959314 10.4094 0.839881 9.80509 0.89626L10.0187 3.18632C10.1818 3.1711 10.3458 3.20333 10.491 3.27912L11.5553 1.24019ZM13.2293 2.93155C12.937 2.5542 12.6788 2.21959 12.4423 1.95837C12.1961 1.68648 11.9177 1.42936 11.5553 1.24019L10.491 3.27912C10.5163 3.29235 10.5833 3.33205 10.7372 3.50203C10.9008 3.68266 11.0972 3.93495 11.4111 4.34013L13.2293 2.93155ZM13.3881 3.13648L13.2293 2.93155L11.4111 4.34013L11.5699 4.54506L13.3881 3.13648ZM14.3267 3.51802C13.8918 3.5251 13.5609 3.35959 13.3881 3.13648L11.5699 4.54507C12.2758 5.45631 13.3644 5.83398 14.3642 5.81771L14.3267 3.51802ZM14.5003 3.51661C14.4424 3.51661 14.3845 3.51708 14.3267 3.51802L14.3642 5.81771C14.4095 5.81698 14.4548 5.81661 14.5003 5.81661V3.51661ZM14.6738 3.51802C14.6161 3.51708 14.5582 3.51661 14.5003 3.51661V5.81661C14.5458 5.81661 14.5911 5.81698 14.6364 5.81771L14.6738 3.51802ZM15.6124 3.13648C15.4396 3.35959 15.1088 3.52509 14.6738 3.51802L14.6364 5.81771C15.6361 5.83397 16.7247 5.4563 17.4306 4.54506L15.6124 3.13648ZM15.7713 2.93139L15.6124 3.13648L17.4306 4.54506L17.5895 4.33996L15.7713 2.93139ZM17.4453 1.24002C17.0829 1.42919 16.8045 1.68631 16.5584 1.9582C16.3219 2.21943 16.0636 2.55403 15.7713 2.93138L17.5895 4.33997C17.9034 3.93478 18.0999 3.68249 18.2634 3.50186C18.4173 3.33188 18.4843 3.29218 18.5096 3.27895L17.4453 1.24002ZM19.1956 0.89609C18.5912 0.83971 17.9834 0.959144 17.4453 1.24002L18.5096 3.27895C18.6548 3.20316 18.8188 3.17093 18.9819 3.18615L19.1956 0.89609ZM21.3851 1.82823C20.9717 1.58956 20.6061 1.37754 20.2883 1.22524C19.9576 1.06671 19.6026 0.934059 19.1956 0.89609L18.9819 3.18615C19.0104 3.1888 19.0874 3.2002 19.2942 3.2993C19.5139 3.40462 19.7912 3.56381 20.2351 3.82009L21.3851 1.82823ZM21.5989 1.95164L21.3851 1.82823L20.2351 3.82008L20.4489 3.9435L21.5989 1.95164ZM23.5009 3.38178C23.2645 3.04828 22.9721 2.80717 22.6695 2.6C22.3787 2.40096 22.0123 2.19031 21.5989 1.95164L20.4489 3.9435C20.8927 4.19977 21.1693 4.36033 21.3703 4.49796C21.5595 4.62747 21.6079 4.68851 21.6245 4.71182L23.5009 3.38178ZM24.0782 5.06949C24.0524 4.46305 23.8519 3.87698 23.5009 3.38178L21.6245 4.71182C21.7192 4.84544 21.7733 5.00359 21.7802 5.16724L24.0782 5.06949ZM23.4504 7.36491C23.631 6.92306 23.7917 6.53213 23.8997 6.19669C24.0121 5.84757 24.0955 5.4779 24.0782 5.06949L21.7802 5.16723C21.7814 5.19579 21.7806 5.27367 21.7103 5.49193C21.6356 5.72387 21.5154 6.02015 21.3214 6.49458L23.4504 7.36491ZM23.3529 7.60348L23.4504 7.36491L21.3214 6.49458L21.2239 6.73316L23.3529 7.60348ZM23.4933 8.60952C23.2683 8.2349 23.246 7.86486 23.3529 7.60348L21.2239 6.73316C20.7867 7.80251 21.0063 8.93582 21.5215 9.79366L23.4933 8.60952ZM23.6656 8.90745C23.6098 8.80712 23.5523 8.70779 23.4933 8.60952L21.5215 9.79366C21.5676 9.87036 21.6124 9.94787 21.656 10.0262L23.6656 8.90745ZM24.4673 9.53177C24.1877 9.49365 23.8783 9.28955 23.6656 8.90746L21.656 10.0262C22.142 10.8991 23.0129 11.6547 24.1565 11.8107L24.4673 9.53177ZM24.7214 9.56642L24.4673 9.53177L24.1565 11.8107L24.4106 11.8453L24.7214 9.56642ZM27.0232 10.1705C26.6782 9.95123 26.3163 9.83869 25.9577 9.76145C25.6133 9.68724 25.1944 9.63092 24.7214 9.56642L24.4106 11.8453C24.9185 11.9146 25.2352 11.9586 25.4734 12.0099C25.6975 12.0582 25.7654 12.0963 25.7896 12.1117L27.0232 10.1705ZM28.1961 11.5143C27.9428 10.9627 27.5355 10.496 27.0232 10.1705L25.7896 12.1117C25.9278 12.1995 26.0377 12.3254 26.1061 12.4743L28.1961 11.5143ZM28.4837 13.8765C28.4837 13.3992 28.4844 12.9765 28.4575 12.6252C28.4294 12.2595 28.3668 11.8857 28.1961 11.5143L26.1061 12.4743C26.118 12.5002 26.1467 12.5727 26.1642 12.8013C26.1829 13.0442 26.1837 13.364 26.1837 13.8765H28.4837ZM28.4837 14.1234V13.8765H26.1837V14.1234H28.4837ZM28.1961 16.4856C28.3668 16.1142 28.4294 15.7404 28.4575 15.3747C28.4844 15.0234 28.4837 14.6007 28.4837 14.1234H26.1837C26.1837 14.6359 26.1829 14.9557 26.1642 15.1986C26.1467 15.4272 26.118 15.4997 26.1061 15.5256L28.1961 16.4856ZM27.0232 17.8294C27.5355 17.5039 27.9428 17.0372 28.1961 16.4856L26.1061 15.5256C26.0377 15.6745 25.9278 15.8004 25.7896 15.8882L27.0232 17.8294ZM24.7214 18.4335C25.1944 18.369 25.6133 18.3127 25.9577 18.2384C26.3163 18.1612 26.6782 18.0487 27.0232 17.8294L25.7896 15.8882C25.7654 15.9036 25.6976 15.9417 25.4734 15.99C25.2352 16.0413 24.9185 16.0853 24.4107 16.1546L24.7214 18.4335ZM24.7551 18.4284L24.7551 18.4284L24.377 16.1597L24.377 16.1597L24.7551 18.4284ZM24.4673 18.4681L24.7214 18.4335L24.4106 16.1546L24.1565 16.1892L24.4673 18.4681ZM23.6656 19.0924C23.8783 18.7103 24.1877 18.5063 24.4673 18.4681L24.1565 16.1892C23.0128 16.3452 22.1419 17.1008 21.656 17.9737L23.6656 19.0924ZM23.4933 19.3903C23.5523 19.2921 23.6097 19.1928 23.6656 19.0924L21.656 17.9737C21.6124 18.052 21.5676 18.1295 21.5215 18.2062L23.4933 19.3903ZM23.3529 20.3964C23.246 20.135 23.2683 19.765 23.4933 19.3904L21.5215 18.2062C21.0063 19.0641 20.7867 20.1974 21.2239 21.2667L23.3529 20.3964ZM23.4504 20.635L23.3529 20.3964L21.2239 21.2667L21.3214 21.5053L23.4504 20.635ZM24.0782 22.9304C24.0955 22.522 24.0121 22.1523 23.8997 21.8032C23.7917 21.4678 23.631 21.0768 23.4504 20.635L21.3214 21.5053C21.5154 21.9797 21.6356 22.276 21.7103 22.508C21.7806 22.7262 21.7814 22.8041 21.7802 22.8326L24.0782 22.9304ZM23.5009 24.6181C23.8519 24.1229 24.0524 23.5368 24.0782 22.9304L21.7802 22.8327C21.7733 22.9963 21.7192 23.1544 21.6245 23.2881L23.5009 24.6181ZM21.5989 26.0482C22.0123 25.8096 22.3787 25.5989 22.6695 25.3999C22.9721 25.1927 23.2645 24.9516 23.5009 24.6181L21.6245 23.2881C21.6079 23.3114 21.5595 23.3724 21.3703 23.5019C21.1693 23.6396 20.8927 23.8001 20.4489 24.0564L21.5989 26.0482ZM21.3851 26.1717L21.5989 26.0482L20.4489 24.0564L20.2351 24.1798L21.3851 26.1717ZM21.3244 26.2043L21.3244 26.2043L20.2958 24.1471L20.2958 24.1471L21.3244 26.2043ZM19.1956 27.1038C19.6026 27.0658 19.9576 26.9332 20.2883 26.7746C20.6061 26.6223 20.9717 26.4103 21.3851 26.1717L20.2351 24.1798C19.7912 24.4361 19.5139 24.5953 19.2942 24.7006C19.0874 24.7997 19.0104 24.8111 18.9819 24.8137L19.1956 27.1038ZM17.4453 26.7599C17.9834 27.0407 18.5912 27.1602 19.1956 27.1038L18.9819 24.8137C18.8188 24.8289 18.6548 24.7967 18.5096 24.7209L17.4453 26.7599ZM15.7713 25.0685C16.0636 25.4458 16.3219 25.7805 16.5584 26.0417C16.8045 26.3136 17.0829 26.5707 17.4453 26.7599L18.5096 24.7209C18.4843 24.7077 18.4173 24.668 18.2634 24.498C18.0999 24.3174 17.9034 24.0651 17.5895 23.6599L15.7713 25.0685ZM15.6124 24.8634L15.7713 25.0685L17.5895 23.6599L17.4306 23.4548L15.6124 24.8634ZM14.6738 24.4819C15.1088 24.4748 15.4396 24.6403 15.6124 24.8634L17.4306 23.4548C16.7247 22.5436 15.6361 22.1659 14.6364 22.1822L14.6738 24.4819ZM14.5003 24.4833C14.5583 24.4833 14.6161 24.4828 14.6738 24.4819L14.6364 22.1822C14.5911 22.1829 14.5458 22.1833 14.5003 22.1833V24.4833ZM14.3268 24.4819C14.3845 24.4828 14.4424 24.4833 14.5003 24.4833V22.1833C14.4549 22.1833 14.4095 22.1829 14.3641 22.1822L14.3268 24.4819ZM13.3881 24.8634C13.5609 24.6403 13.8918 24.4748 14.3267 24.4819L14.3642 22.1822C13.3644 22.1659 12.2758 22.5436 11.5699 23.4548L13.3881 24.8634ZM13.2293 25.0683L13.3881 24.8634L11.5699 23.4548L11.4111 23.6597L13.2293 25.0683ZM11.5553 26.7597C11.9177 26.5705 12.1961 26.3134 12.4423 26.0415C12.6788 25.7803 12.937 25.4457 13.2293 25.0683L11.4111 23.6597C11.0972 24.0649 10.9008 24.3172 10.7372 24.4979C10.5833 24.6678 10.5163 24.7075 10.491 24.7208L11.5553 26.7597ZM9.80508 27.1036C10.4094 27.16 11.0172 27.0406 11.5553 26.7597L10.491 24.7208C10.3458 24.7966 10.1818 24.8288 10.0187 24.8136L9.80508 27.1036ZM7.61553 26.1715C8.02892 26.4102 8.39457 26.6222 8.71234 26.7745C9.04307 26.933 9.39807 27.0657 9.80509 27.1036L10.0187 24.8136C9.99026 24.8109 9.91321 24.7995 9.70645 24.7004C9.48672 24.5951 9.20942 24.4359 8.76554 24.1796L7.61553 26.1715ZM7.40177 26.0481L7.61554 26.1715L8.76554 24.1796L8.55178 24.0562L7.40177 26.0481ZM16.8503 13.9999C16.8503 15.2978 15.7982 16.3499 14.5003 16.3499V18.6499C17.0684 18.6499 19.1503 16.568 19.1503 13.9999H16.8503ZM14.5003 11.6499C15.7982 11.6499 16.8503 12.702 16.8503 13.9999H19.1503C19.1503 11.4318 17.0684 9.3499 14.5003 9.3499V11.6499ZM12.1503 13.9999C12.1503 12.702 13.2025 11.6499 14.5003 11.6499V9.3499C11.9322 9.3499 9.85033 11.4318 9.85033 13.9999H12.1503ZM14.5003 16.3499C13.2025 16.3499 12.1503 15.2978 12.1503 13.9999H9.85033C9.85033 16.568 11.9322 18.6499 14.5003 18.6499V16.3499Z" fill="#E1E1EE"/>
</svg>
